<svg width="51" height="51" viewBox="0 0 51 51" fill="none" xmlns="http://www.w3.org/2000/svg">
<path d="M47.3627 25.0138L22.2337 48.3967C21.7648 48.8183 21.7581 49.5064 22.219 49.9339C22.6799 50.3613 23.4335 50.3662 23.9026 49.9447C23.9124 49.9358 23.922 49.9269 23.9315 49.9177L49.8936 25.7572C50.3542 25.3284 50.3477 24.6404 49.879 24.2203L23.4632 0.556883C22.9864 0.144302 22.2329 0.163475 21.7802 0.599549C21.3386 1.02502 21.3449 1.69276 21.7945 2.10977L47.3627 25.0138Z" fill="black"/>
<path d="M0.820947 50.1391C1.28979 50.559 2.04332 50.5518 2.50422 50.1231L28.4663 25.9627C28.9269 25.5338 28.9204 24.8458 28.4517 24.4257L2.03591 0.762305C1.5591 0.349725 0.805581 0.368795 0.352895 0.804869C-0.08873 1.23034 -0.082394 1.89818 0.367223 2.31509L25.9353 25.2171L0.806345 48.6C0.34488 49.0283 0.350516 49.7166 0.818807 50.1372C0.819482 50.1378 0.820272 50.1385 0.820947 50.1391Z" fill="black"/>
</svg>
