<svg width="50" height="50" viewBox="0 0 50 50" fill="none" xmlns="http://www.w3.org/2000/svg">
<path d="M2.87229 25.0123L28.222 1.86882C28.6948 1.45174 28.708 0.763693 28.2512 0.331832C27.7944 -0.0999278 27.0408 -0.111952 26.5679 0.305133C26.5579 0.313897 26.5482 0.322762 26.5386 0.331832L0.348545 24.2449C-0.116182 24.6693 -0.116182 25.3574 0.348545 25.7819L26.5386 49.6949C27.0115 50.112 27.7652 50.0999 28.222 49.6682C28.6676 49.2469 28.6676 48.5791 28.222 48.1579L2.87229 25.0123Z" fill="black"/>
<path d="M49.6503 0.329685C49.1854 -0.094636 48.4319 -0.094636 47.9669 0.329685L21.7768 24.2428C21.3121 24.6672 21.3121 25.3552 21.7768 25.7797L47.9669 49.6927C48.4398 50.1098 49.1935 50.0979 49.6503 49.6661C50.0959 49.2449 50.0959 48.577 49.6503 48.1558L24.3006 25.0123L49.6503 1.86881C50.1158 1.4449 50.1167 0.756655 49.6524 0.331621C49.6517 0.331009 49.6509 0.330296 49.6503 0.329685Z" fill="black"/>
</svg>
