<svg width="58" height="58" viewBox="0 0 58 58" fill="none" xmlns="http://www.w3.org/2000/svg">
<g filter="url(#filter0_d)">
<path d="M6.87229 25.0123L32.222 1.86882C32.6948 1.45174 32.708 0.763693 32.2512 0.331832C31.7944 -0.0999278 31.0408 -0.111952 30.5679 0.305133C30.5579 0.313897 30.5482 0.322762 30.5386 0.331832L4.34854 24.2449C3.88382 24.6693 3.88382 25.3574 4.34854 25.7819L30.5386 49.6949C31.0115 50.112 31.7652 50.0999 32.222 49.6682C32.6676 49.2469 32.6676 48.5791 32.222 48.1579L6.87229 25.0123Z" fill="black"/>
<path d="M53.6503 0.329685C53.1854 -0.094636 52.4319 -0.094636 51.9669 0.329685L25.7768 24.2428C25.3121 24.6672 25.3121 25.3552 25.7768 25.7797L51.9669 49.6927C52.4398 50.1098 53.1935 50.0979 53.6503 49.6661C54.0959 49.2449 54.0959 48.577 53.6503 48.1558L28.3006 25.0123L53.6503 1.86881C54.1158 1.4449 54.1167 0.756655 53.6524 0.331621C53.6517 0.331009 53.6509 0.330296 53.6503 0.329685Z" fill="black"/>
</g>
<defs>
<filter id="filter0_d" x="0" y="0" width="58" height="58" filterUnits="userSpaceOnUse" color-interpolation-filters="sRGB">
<feFlood flood-opacity="0" result="BackgroundImageFix"/>
<feColorMatrix in="SourceAlpha" type="matrix" values="0 0 0 0 0 0 0 0 0 0 0 0 0 0 0 0 0 0 127 0"/>
<feOffset dy="4"/>
<feGaussianBlur stdDeviation="2"/>
<feColorMatrix type="matrix" values="0 0 0 0 0 0 0 0 0 0 0 0 0 0 0 0 0 0 0.25 0"/>
<feBlend mode="normal" in2="BackgroundImageFix" result="effect1_dropShadow"/>
<feBlend mode="normal" in="SourceGraphic" in2="effect1_dropShadow" result="shape"/>
</filter>
</defs>
</svg>
